{"title":"Lego Hero Factory - Rise Of The Rookies (2010) DVDRip XviD AC3 p","uid":9140927,"size":1160535966,"categoryP":"video","categoryS":"movies","magnet":"?xt=urn:btih:107cdb678214f5fb9f3ed04a6709aac01299a655&amp;dn=Lego+Hero+Factory+-+Rise+Of+The+Rookies+%282010%29+DVDRip+XviD+AC3+p&amp;tr=udp%3A%2F%2Ftracker.openbittorrent.com%3A80&amp;tr=udp%3A%2F%2Fopen.demonii.com%3A1337&amp;tr=udp%3A%2F%2Ftracker.coppersurfer.tk%3A6969&amp;tr=udp%3A%2F%2Fexodus.desync.com%3A6969","seeders":6,"leechers":1,"uploader":"peaSoup","files":-1,"time":1383512533,"description":"Storyline\n\nA new Rookie team has been assigned to complete their training with Stormer and his crew - but someone from Stormer's past is trying to take down the Hero Factory and Stormer himself.                                                                    &lt;a href=&quot; http://imageshack.com/a/img27/7485/6gni.jpg&quot; rel=&quot;nofollow&quot; target=&quot;_NEW&quot;&gt; http://imageshack.com/a/img27/7485/6gni.jpg&lt;/a&gt;                                         &lt;a href=&quot; http://imageshack.com/a/img833/862/ztba.jpg&quot; rel=&quot;nofollow&quot; target=&quot;_NEW&quot;&gt; http://imageshack.com/a/img833/862/ztba.jpg&lt;/a&gt;                                         &lt;a href=&quot; http://imageshack.com/a/img268/4145/xth0.jpg&quot; rel=&quot;nofollow&quot; target=&quot;_NEW&quot;&gt; http://imageshack.com/a/img268/4145/xth0.jpg&lt;/a&gt;                                        &lt;a href=&quot; http://imageshack.com/a/img600/1284/5mid.jpg&quot; rel=&quot;nofollow&quot; target=&quot;_NEW&quot;&gt; http://imageshack.com/a/img600/1284/5mid.jpg&lt;/a&gt;                                        &lt;a href=&quot; http://imageshack.com/a/img716/7271/tonu.jpg&quot; rel=&quot;nofollow&quot; target=&quot;_NEW&quot;&gt; http://imageshack.com/a/img716/7271/tonu.jpg&lt;/a&gt;                                         Format                                   : AVI\nFormat/Info                              : Audio Video Interleave\nFormat profile                           : OpenDML\nFile size                                : 1.08 GiB\nDuration                                 : 1h 23mn\nOverall bit rate                         : 1 858 Kbps\nMovie name                               : Lego Hero Factory - Rise Of The Rookies (2010) DVDRip XviD AC3 peaSoup\nWriting application                      : Lavf53.21.0\nOriginal source form/Name                : LEGO_HERO_FACTORY_RISE_ROOKIES\n\nVideo\nID                                       : 0\nFormat                                   : MPEG-4 Visual\nFormat profile                           : Advanced Simple@L5\nFormat settings, BVOP                    : 2\nFormat settings, QPel                    : No\nFormat settings, GMC                     : No warppoints\nFormat settings, Matrix                  : Default (H.263)\nMuxing mode                              : Packed bitstream\nCodec ID                                 : XVID\nCodec ID/Hint                            : XviD\nDuration                                 : 1h 23mn\nBit rate                                 : 1 460 Kbps\nWidth                                    : 720 pixels\nHeight                                   : 406 pixels\nDisplay aspect ratio                     : 16:9\nFrame rate                               : 25.000 fps\nColor space                              : YUV\nChroma subsampling                       : 4:2:0\nBit depth                                : 8 bits\nScan type                                : Progressive\nCompression mode                         : Lossy\nBits/(Pixel*Frame)                       : 0.200\nStream size                              : 870 MiB (79%)\nWriting library                          : XviD 1.2.1 (UTC 2008-12-04)\n\nAudio\nID                                       : 1\nFormat                                   : AC-3\nFormat/Info                              : Audio Coding 3\nMode extension                           : CM (complete main)\nFormat settings, Endianness              : Big\nCodec ID                                 : 2000\nDuration                                 : 1h 23mn\nBit rate mode                            : Constant\nBit rate                                 : 384 Kbps\nChannel(s)                               : 6 channels\nChannel positions                        : Front: L C R, Side: L R, LFE\nSampling rate                            : 48.0 KHz\nBit depth                                : 16 bits\nCompression mode                         : Lossy\nStream size                              : 229 MiB (21%)\nAlignment                                : Aligned on interleaves\nInterleave, duration                     : 32 ms (0.80 video frame)\n\n\n","torrent":{"xt":"urn:btih:107cdb678214f5fb9f3ed04a6709aac01299a655","amp;dn":"Lego+Hero+Factory+-+Rise+Of+The+Rookies+%282010%29+DVDRip+XviD+AC3+p","amp;tr":["udp%3A%2F%2Ftracker.openbittorrent.com%3A80","udp%3A%2F%2Fopen.demonii.com%3A1337","udp%3A%2F%2Ftracker.coppersurfer.tk%3A6969","udp%3A%2F%2Fexodus.desync.com%3A6969"],"infoHash":"107cdb678214f5fb9f3ed04a6709aac01299a655","infoHashBuffer":{"type":"Buffer","data":[16,124,219,103,130,20,245,251,159,62,208,74,103,9,170,192,18,153,166,85]},"announce":[],"urlList":[]}}